<?xml version="1.0" encoding="UTF-8" standalone="yes"?>
<svg xmlns="http://www.w3.org/2000/svg" xmlns:xlink="http://www.w3.org/1999/xlink" width="30px" height="30px" viewBox="0 0 30 30" version="1.1" fill="#000000">
  <g id="surface195111">
    <path style=" stroke:none;fill-rule:nonzero;fill:#000000;fill-opacity:1;" d="M 16 3 C 15.949219 3 15.902344 3.003906 15.855469 3.007812 C 14.25 3.0625 12.945312 3.972656 12.066406 5.203125 C 11.714844 5.117188 11.382812 5 11 5 C 8.25 5 6 7.25 6 10 C 6 10.570312 6.203125 11.058594 6.394531 11.550781 C 6.015625 11.949219 5.691406 12.402344 5.460938 12.90625 C 5.394531 13.039062 5.355469 13.179688 5.351562 13.328125 C 5.136719 13.84375 5 14.398438 5 15 C 5 16.171875 5.472656 17.207031 6.148438 18.0625 C 6.085938 18.363281 6 18.652344 6 19 C 6 20.015625 6.3125 20.960938 6.835938 21.75 L 3.292969 25.292969 C 3.03125 25.542969 2.925781 25.917969 3.019531 26.265625 C 3.109375 26.617188 3.382812 26.890625 3.734375 26.980469 C 4.082031 27.074219 4.457031 26.96875 4.707031 26.707031 L 8.25 23.164062 C 9.039062 23.6875 9.984375 24 11 24 C 11.613281 24 12.132812 23.765625 12.664062 23.5625 C 13.550781 24.398438 14.679688 25 16 25 C 17.59375 25 18.90625 24.148438 19.816406 22.984375 C 19.886719 22.988281 19.917969 23 20 23 C 22.75 23 25 20.75 25 18 C 25 17.386719 24.765625 16.867188 24.5625 16.335938 C 25.398438 15.449219 26 14.320312 26 13 C 26 12.386719 25.765625 11.867188 25.5625 11.335938 C 26.398438 10.449219 27 9.320312 27 8 C 27 5.25 24.75 3 22 3 C 20.875 3 19.90625 3.460938 19.078125 4.09375 C 18.226562 3.421875 17.164062 3 16 3 Z M 16 5 C 16.222656 5 16.4375 5.023438 16.640625 5.070312 C 16.664062 5.074219 16.6875 5.085938 16.707031 5.09375 C 17.3125 5.242188 17.839844 5.574219 18.246094 6.039062 C 18.269531 6.0625 18.296875 6.089844 18.324219 6.113281 C 18.742188 6.628906 19 7.277344 19 8 C 18.996094 8.359375 19.183594 8.695312 19.496094 8.878906 C 19.808594 9.058594 20.191406 9.058594 20.503906 8.878906 C 20.816406 8.695312 21.003906 8.359375 21 8 C 21 7.101562 20.742188 6.269531 20.324219 5.539062 C 20.800781 5.203125 21.371094 5 22 5 C 23.667969 5 25 6.332031 25 8 C 25 8.945312 24.5625 9.765625 23.871094 10.324219 C 23.496094 10.625 23.390625 11.152344 23.621094 11.578125 C 23.863281 12.019531 24 12.492188 24 13 C 24 13.945312 23.5625 14.765625 22.871094 15.324219 C 22.496094 15.625 22.390625 16.152344 22.621094 16.578125 C 22.863281 17.019531 23 17.492188 23 18 C 23 19.667969 21.667969 21 20 21 C 19.929688 21 19.804688 20.980469 19.605469 20.953125 C 19.199219 20.902344 18.800781 21.101562 18.601562 21.457031 C 18.085938 22.378906 17.125 23 16 23 C 15.054688 23 14.234375 22.5625 13.675781 21.871094 C 13.375 21.496094 12.847656 21.390625 12.421875 21.621094 C 11.980469 21.863281 11.507812 22 11 22 C 9.332031 22 8 20.667969 8 19 C 8 18.722656 8.054688 18.441406 8.148438 18.136719 C 8.253906 17.78125 8.15625 17.394531 7.890625 17.132812 C 7.339844 16.585938 7 15.839844 7 15 C 7 14.054688 7.4375 13.234375 8.128906 12.675781 C 8.164062 12.648438 8.195312 12.621094 8.226562 12.589844 C 8.722656 12.222656 9.332031 12 10 12 C 10.386719 12 10.753906 12.074219 11.09375 12.203125 C 11.425781 12.34375 11.808594 12.289062 12.089844 12.0625 C 12.375 11.839844 12.515625 11.480469 12.457031 11.121094 C 12.402344 10.765625 12.15625 10.46875 11.816406 10.34375 C 11.253906 10.121094 10.640625 10 10 10 C 9.300781 10 8.640625 10.152344 8.03125 10.410156 C 8.011719 10.277344 8 10.140625 8 10 C 8 8.332031 9.332031 7 11 7 C 11.363281 7 11.710938 7.074219 12.058594 7.203125 C 12.539062 7.386719 13.082031 7.167969 13.308594 6.703125 C 13.796875 5.695312 14.804688 5 16 5 Z M 12.898438 16.488281 C 12.507812 16.484375 12.152344 16.707031 11.988281 17.0625 C 11.820312 17.414062 11.875 17.828125 12.125 18.128906 C 13.03125 19.253906 14.429688 20 16 20 C 17.570312 20 18.96875 19.253906 19.875 18.128906 C 20.222656 17.699219 20.15625 17.070312 19.726562 16.722656 C 19.296875 16.375 18.667969 16.441406 18.320312 16.871094 C 17.761719 17.5625 16.945312 18 16 18 C 15.054688 18 14.238281 17.5625 13.679688 16.871094 C 13.492188 16.632812 13.203125 16.488281 12.898438 16.488281 Z M 12.898438 16.488281 "/>
  </g>
</svg>
