<?xml version="1.0" encoding="UTF-8" standalone="yes"?>
<svg xmlns="http://www.w3.org/2000/svg" xmlns:xlink="http://www.w3.org/1999/xlink" width="80px" height="80px" viewBox="0 0 80 80" version="1.1" fill="#000000">
  <g id="surface275320">
    <path style=" stroke:none;fill-rule:nonzero;fill:#000000;fill-opacity:1;" d="M 38.25 7.601562 C 36.871094 7.613281 35.542969 8.613281 35.148438 10.175781 C 35.132812 10.234375 35.125 10.289062 35.121094 10.347656 C 35.121094 10.347656 34.902344 13.210938 34.351562 16.796875 C 33.800781 20.386719 32.898438 24.710938 31.640625 27.449219 C 31.097656 28.636719 30.566406 29.191406 29.902344 29.53125 C 29.234375 29.867188 28.3125 30 27 30 L 9 30 C 7.082031 30 5.605469 30.90625 5.109375 32.246094 C 4.617188 33.585938 5.242188 35.175781 6.648438 36.015625 C 6.734375 36.078125 11.875 39.71875 22.46875 45.488281 C 24.628906 46.667969 25.367188 48.851562 24.355469 51.109375 C 21.058594 58.480469 17.328125 67.730469 17.320312 67.75 C 16.660156 69.3125 17.332031 70.9375 18.488281 71.75 C 19.609375 72.539062 21.277344 72.660156 22.578125 71.6875 C 22.578125 71.6875 30.878906 66.824219 37.777344 60.3125 C 39.019531 59.140625 39.871094 58.851562 40.5 58.875 C 41.125 58.902344 41.746094 59.265625 42.464844 59.953125 C 49.472656 66.648438 57.390625 71.671875 57.390625 71.671875 L 57.296875 71.597656 C 58.613281 72.675781 60.351562 72.566406 61.511719 71.75 C 62.667969 70.9375 63.339844 69.308594 62.675781 67.746094 L 62.710938 67.835938 C 62.710938 67.835938 59.105469 56.429688 56.875 50.636719 C 56.878906 50.636719 56.878906 50.636719 56.875 50.636719 C 56.386719 49.363281 56.191406 48.488281 56.273438 47.921875 C 56.355469 47.351562 56.636719 46.886719 57.613281 46.203125 C 62.886719 42.519531 73.335938 36.027344 73.355469 36.015625 C 74.773438 35.167969 75.316406 33.523438 74.785156 32.21875 C 74.253906 30.910156 72.816406 30 71 30 L 53 30 C 51.894531 30 50.742188 29.941406 49.917969 29.601562 C 49.09375 29.261719 48.539062 28.777344 48.28125 27.421875 C 46.109375 15.875 41.871094 10.152344 41.730469 9.960938 C 40.984375 8.457031 39.625 7.589844 38.25 7.601562 Z M 38.269531 9.601562 C 38.804688 9.597656 39.496094 9.917969 39.953125 10.859375 C 39.980469 10.921875 40.015625 10.976562 40.054688 11.03125 C 40.054688 11.03125 44.171875 16.40625 46.316406 27.792969 C 46.675781 29.695312 47.84375 30.90625 49.15625 31.449219 C 50.464844 31.992188 51.855469 32 53 32 L 71 32 C 72.183594 32 72.75 32.519531 72.933594 32.96875 C 73.113281 33.417969 73.074219 33.855469 72.328125 34.300781 C 72.320312 34.304688 72.316406 34.308594 72.3125 34.3125 C 72.3125 34.3125 61.859375 40.800781 56.46875 44.5625 C 55.242188 45.421875 54.464844 46.445312 54.296875 47.636719 C 54.125 48.824219 54.484375 49.984375 55.011719 51.355469 C 57.179688 57 60.800781 68.4375 60.800781 68.4375 C 60.8125 68.46875 60.824219 68.5 60.835938 68.527344 C 61.140625 69.246094 60.871094 69.757812 60.359375 70.113281 C 59.851562 70.472656 59.191406 70.566406 58.5625 70.050781 C 58.53125 70.027344 58.5 70.003906 58.464844 69.984375 C 58.464844 69.984375 50.667969 65.027344 43.84375 58.503906 C 43.847656 58.503906 43.847656 58.503906 43.84375 58.503906 C 42.964844 57.664062 41.90625 56.933594 40.578125 56.878906 C 39.246094 56.824219 37.867188 57.476562 36.40625 58.859375 C 29.726562 65.164062 21.5625 69.964844 21.5625 69.964844 C 21.519531 69.988281 21.476562 70.019531 21.4375 70.050781 C 20.808594 70.566406 20.148438 70.472656 19.640625 70.113281 C 19.128906 69.757812 18.859375 69.246094 19.160156 68.527344 C 19.164062 68.523438 19.167969 68.515625 19.167969 68.511719 C 19.167969 68.511719 22.90625 59.246094 26.183594 51.925781 C 27.566406 48.828125 26.398438 45.351562 23.425781 43.734375 C 12.816406 37.953125 7.742188 34.34375 7.742188 34.34375 C 7.71875 34.328125 7.695312 34.3125 7.671875 34.300781 C 6.914062 33.84375 6.832031 33.355469 6.984375 32.9375 C 7.140625 32.523438 7.667969 32 9 32 L 27 32 C 28.4375 32 29.691406 31.878906 30.808594 31.3125 C 31.925781 30.742188 32.796875 29.726562 33.460938 28.28125 C 34.890625 25.167969 35.765625 20.769531 36.328125 17.101562 C 36.878906 13.519531 37.085938 10.785156 37.09375 10.65625 C 37.308594 9.84375 37.742188 9.605469 38.269531 9.601562 Z M 40 19.535156 L 39.199219 19.9375 L 39.042969 20.820312 L 39.652344 21.472656 L 40 21.535156 L 40.800781 21.136719 L 40.957031 20.253906 L 40.347656 19.597656 Z M 40 23.535156 L 39.199219 23.9375 L 39.042969 24.820312 L 39.652344 25.472656 L 40 25.535156 L 40.800781 25.136719 L 40.957031 24.253906 L 40.347656 23.597656 Z M 40 27.535156 L 39.199219 27.9375 L 39.042969 28.820312 L 39.652344 29.472656 L 40 29.535156 L 40.800781 29.136719 L 40.957031 28.253906 L 40.347656 27.597656 Z M 40 31.535156 L 39.199219 31.9375 L 39.042969 32.820312 L 39.652344 33.472656 L 40 33.535156 L 40.800781 33.136719 L 40.957031 32.253906 L 40.347656 31.597656 Z M 17 35 L 16.199219 35.402344 L 16.042969 36.28125 L 16.652344 36.9375 L 17 37 L 17.800781 36.597656 L 17.957031 35.71875 L 17.347656 35.0625 Z M 63 35 L 62.199219 35.402344 L 62.042969 36.28125 L 62.652344 36.9375 L 63 37 L 63.800781 36.597656 L 63.957031 35.71875 L 63.347656 35.0625 Z M 40 35.535156 L 39.199219 35.9375 L 39.042969 36.820312 L 39.652344 37.472656 L 40 37.535156 L 40.800781 37.136719 L 40.957031 36.253906 L 40.347656 35.597656 Z M 20.90625 35.847656 L 20.109375 36.25 L 19.949219 37.132812 L 20.5625 37.785156 L 20.90625 37.847656 L 21.707031 37.449219 L 21.867188 36.566406 L 21.253906 35.910156 Z M 59.09375 35.847656 L 58.292969 36.25 L 58.132812 37.132812 L 58.746094 37.785156 L 59.09375 37.847656 L 59.890625 37.449219 L 60.050781 36.566406 L 59.4375 35.910156 Z M 24.816406 36.699219 L 24.015625 37.101562 L 23.859375 37.984375 L 24.46875 38.636719 L 24.816406 38.699219 L 25.621094 38.296875 L 25.777344 37.417969 L 25.164062 36.761719 Z M 55.183594 36.699219 L 54.378906 37.101562 L 54.222656 37.984375 L 54.835938 38.636719 L 55.183594 38.699219 L 55.984375 38.296875 L 56.140625 37.417969 L 55.53125 36.761719 Z M 28.726562 37.546875 L 27.925781 37.953125 L 27.765625 38.832031 L 28.378906 39.484375 L 28.726562 39.546875 L 29.527344 39.148438 L 29.6875 38.265625 L 29.074219 37.609375 Z M 51.273438 37.546875 L 50.472656 37.953125 L 50.3125 38.832031 L 50.925781 39.484375 L 51.273438 39.546875 L 52.074219 39.148438 L 52.234375 38.265625 L 51.621094 37.609375 Z M 32.636719 38.398438 L 31.832031 38.800781 L 31.675781 39.683594 L 32.285156 40.335938 L 32.636719 40.398438 L 33.4375 40 L 33.59375 39.113281 L 32.984375 38.460938 Z M 47.363281 38.398438 L 46.5625 38.800781 L 46.40625 39.683594 L 47.015625 40.335938 L 47.363281 40.398438 L 48.167969 40 L 48.324219 39.113281 L 47.714844 38.460938 Z M 36.542969 39.25 L 35.742188 39.652344 L 35.582031 40.53125 L 36.199219 41.1875 L 36.542969 41.25 L 37.34375 40.847656 L 37.5 39.964844 L 36.890625 39.3125 Z M 43.457031 39.25 L 42.65625 39.652344 L 42.5 40.53125 L 43.109375 41.1875 L 43.457031 41.25 L 44.257812 40.847656 L 44.417969 39.964844 L 43.800781 39.3125 Z M 40 39.535156 L 39.199219 39.9375 L 39.042969 40.820312 L 39.121094 40.90625 L 39.050781 41.296875 L 39.664062 41.953125 L 40.011719 42.015625 L 40.8125 41.613281 L 40.96875 40.730469 L 40.890625 40.644531 L 40.957031 40.253906 L 40.347656 39.597656 Z M 42.296875 43.296875 L 41.496094 43.699219 L 41.335938 44.582031 L 41.949219 45.234375 L 42.296875 45.296875 L 43.09375 44.894531 L 43.253906 44.015625 L 42.640625 43.359375 Z M 37.792969 43.3125 L 36.988281 43.714844 L 36.832031 44.597656 L 37.441406 45.25 L 37.792969 45.3125 L 38.59375 44.910156 L 38.75 44.03125 L 38.140625 43.375 Z M 44.578125 46.582031 L 43.777344 46.984375 L 43.621094 47.863281 L 44.234375 48.519531 L 44.578125 48.582031 L 45.378906 48.179688 L 45.535156 47.296875 L 44.925781 46.644531 Z M 35.574219 46.640625 L 34.769531 47.042969 L 34.613281 47.925781 L 35.222656 48.578125 L 35.574219 48.640625 L 36.375 48.238281 L 36.53125 47.359375 L 35.921875 46.703125 Z M 46.863281 49.863281 L 46.0625 50.265625 L 45.90625 51.148438 L 46.515625 51.800781 L 46.863281 51.863281 L 47.664062 51.464844 L 47.824219 50.582031 L 47.207031 49.925781 Z M 33.355469 49.96875 L 32.550781 50.371094 L 32.394531 51.253906 L 33.003906 51.90625 L 33.355469 51.96875 L 34.15625 51.566406 L 34.3125 50.6875 L 33.703125 50.03125 Z M 49.144531 53.148438 L 48.34375 53.550781 L 48.1875 54.433594 L 48.800781 55.089844 L 49.144531 55.148438 L 49.949219 54.75 L 50.105469 53.863281 L 49.496094 53.210938 Z M 31.136719 53.296875 L 30.332031 53.699219 L 30.175781 54.582031 L 30.785156 55.234375 L 31.136719 55.296875 L 31.9375 54.894531 L 32.09375 54.015625 L 31.484375 53.359375 Z M 51.433594 56.433594 L 50.628906 56.832031 L 50.472656 57.71875 L 51.082031 58.371094 L 51.433594 58.433594 L 52.234375 58.03125 L 52.390625 57.148438 L 51.78125 56.496094 Z M 28.917969 56.625 L 28.113281 57.027344 L 27.957031 57.910156 L 28.566406 58.5625 L 28.917969 58.625 L 29.71875 58.222656 L 29.875 57.34375 L 29.265625 56.6875 Z M 53.714844 59.71875 L 52.914062 60.117188 L 52.753906 61 L 53.371094 61.65625 L 53.714844 61.71875 L 54.515625 61.3125 L 54.671875 60.433594 L 54.0625 59.78125 Z M 26.699219 59.953125 L 25.894531 60.355469 L 25.738281 61.238281 L 26.347656 61.890625 L 26.699219 61.953125 L 27.5 61.550781 L 27.65625 60.671875 L 27.046875 60.015625 Z M 56 63 L 55.199219 63.402344 L 55.042969 64.28125 L 55.652344 64.9375 L 56 65 L 56.800781 64.597656 L 56.957031 63.71875 L 56.347656 63.0625 Z M 24.480469 63.28125 L 23.675781 63.683594 L 23.519531 64.566406 L 24.128906 65.21875 L 24.480469 65.28125 L 25.28125 64.878906 L 25.4375 64 L 24.828125 63.34375 Z M 24.480469 63.28125 "/>
  </g>
</svg>
